<svg width="633" height="261" viewBox="0 0 633 261" fill="none" xmlns="http://www.w3.org/2000/svg">
<path d="M534 49V49.3864C533.721 49.5939 533.492 50.1489 533.5 50.5C533.516 51.29 532.686 51.7766 532 52C528.698 53.0533 538.656 57.3815 533.5 59.5L530.5 62.5L531.657 70.5C531.594 70.8455 518.2 70.2114 518 70.5C517.8 70.7886 516.801 72.3198 516.5 72.5C516.5 72.5 513.849 72.4604 513.5 72.5C513.5 72.5 512.334 72.608 512 72.5C508.112 71.2433 508.049 77.5156 508 77.5C508.049 77.5156 508 77.4844 508 77.5C508.049 77.5156 508 77.5156 508 77.5C508.079 77.525 518.04 82.3043 522 85.5C526.031 88.7675 531.349 96.2311 530.5 102C531.201 103.592 534.749 104.243 534.5 104.5C532.363 106.726 530.691 107.016 530.5 110C530.481 110.269 527.893 110.752 528 111C528.107 111.248 528.291 111.828 528.5 112C528.237 112.069 528.765 112.058 528.5 112C528.5 112 541.647 107.827 549 107.5C551.68 107.388 555.022 107.545 557 108C557.805 108.184 558.675 111.194 558.5 112C556.626 120.721 554.741 128.848 552.5 136.5C551.95 138.391 551.689 139.391 552 140.5C552.933 143.767 553.689 144.214 556.5 142C559.909 139.319 561.517 135.782 560.5 132C560.38 131.537 560.521 130.088 561 130.08L562 125C572.551 154.148 589.6 197.56 589.6 197.56L592.448 205.267L602.819 232.987L608 245.659L611 253.659C611 253.626 612.5 257.659 612.5 257.659H611H609H607H605H597H567H566H565H564.5C564.5 257.659 564.5 257.659 564 257.659H563H562L548 257.643L543 257.659L534 225.659L527.406 207.494L523.5 195.659L521 189.659L518 181.659L517.5 180.159C517.5 180.159 517.024 178.731 517 178.659C512.347 165.445 504 140.959 504 140.959L499.306 130.08L480 82.6589L478.5 79.6589H478H477.5L476 82.6589L456.994 133.144L446.383 161.582L443 170.659L438 185.659L423.714 228.164L414.156 254.818L413 257.659C413 257.61 411.707 257.627 411 257.659L382 257.703H369.511C369.511 257.659 365 257.703 365 257.703L350 257.659H325H321C312.722 246.225 295.904 221.282 295.904 221.282C295.904 221.282 274.334 189.726 262 172.659L248 150.659L247.109 148.56C248.616 142.144 253.903 130.846 253.903 130.846C256.5 125.659 256 126.659 260 118.925C261 119 262 119.159 265 119.659C281.273 120.893 304.924 110.87 311.289 96.1364C315.033 87.4949 313.813 77.2497 309.207 69.1827C301.671 55.9812 283 50.1249 268.57 49.3505C265 49.159 252 48.659 252 48.659L234.775 95.5499L227.98 111.265L221.473 126.357L216.592 136.986L206.352 162.97L197 184.659L191.482 198.29L185.5 212.659L181.362 222.359L165 260.707H161.324C146.124 261.018 131.049 261.186 116 260.659C116 260.659 115.5 260.659 115 260.659L114.5 259.659C110.708 250.515 103.042 232.209 103.042 232.209L91.2229 204.525L86.7489 192.856L78.0161 174.448C78.0161 174.448 73.2251 164.157 71 158.659L69 154.659L67 150.659L52.1049 117.189C38.2601 87.6665 22.1348 51.0524 2.50004 7.15896L1.00004 3.65896L0 1.65896C0 1.65896 31.9653 1.6829 37.5 1.65896C49 1.65896 53 1.65896 53 1.65896C52 1.65896 69 1.65896 69 1.65896L69.0561 1.87049L75.5 16.3287C75.5 16.3287 105.295 86.1744 112.576 103.617C117.648 115.777 126 134.659 126 134.659L127 136.659L128 138.659L134 151.659L136.5 156.659L137.5 158.659L138 159.659H140L148 144.5L155 130.08L164.5 109.9L170.5 95.5499L179 74.6589L185.863 57.5224L192.726 40.3859L199.5 24.5L204.94 10.7752L209 0.658958H210H225.5H262.5C271 0.658958 308.5 4 314.722 5.55686L319.5 7C323 8 327.522 9.47065 327.522 9.47065C327.522 9.47065 336.861 14.1514 341 17C348.082 21.8833 354.522 26.4543 359.187 33.8749C375.002 59.0691 374.762 92.3064 363.015 118.733C361.269 122.647 356.962 128.775 353.888 132.102C346.112 140.497 336.741 146.118 325.775 148.966L316 150.659L331 172.659L359 212.5H360H361L365 204L384.034 158.075L395.877 126.609L413.737 79.5596L444.5 0.500015H460H468L484 0.500016L490 0.500011L498.014 0.577864L512 0.500008L514 0.577859L516 5L529 37C529 37 533.5 48.5 534 49Z" fill="#323535"/>
<path d="M564.5 131.774H562.031C561.553 131.782 561.373 132.018 561.493 132.481C562.51 136.263 561.266 141.601 557.856 144.282C555.045 146.496 550.978 144.749 550.045 141.481C549.734 140.372 549.853 138.872 550.404 136.981C552.645 129.329 554.702 121.142 556.576 112.421C556.752 111.615 556.437 111.12 555.631 110.937C553.653 110.482 551.325 110.311 548.645 110.422C541.292 110.749 528 113.5 528 113.5C528 113.5 527 113 526 113C526 113 529 105 529.888 102.93C530.737 97.1609 522.734 90.5421 518.702 87.2747C514.743 84.079 512 82.5 507.5 79.5C507.5 79.5 505 78.5 505 78C505 77.5 506.5 69 507 69C507.5 69 511.65 70.4104 511.999 70.3708C512.347 70.3312 512.684 70.2175 512.985 70.0373C513.286 69.8571 513.545 69.6146 513.745 69.3261C513.945 69.0375 514.082 68.7095 514.145 68.364C514.145 68.364 515.639 61.4638 515.819 59.2319C516 57 513.497 49 511.999 47C510.5 45 529 51 532.113 51.4283C532.113 51.4283 533 47.5 532.113 45.5C532.113 45.5 533 45 535.5 46C538 47 542 49.5 542 49.5L548.645 53.1278C551 54 553.5 53.5 553.5 53.5C557.5 51.3739 558.5 23.9154 559 22.9577C559.5 22 561.5 25 563 26C567.73 29.1532 567.5 27.5 571.554 23.7685C575.972 19.723 580.814 14.8406 584.331 10.3483C584.709 9.86579 584.649 9.90271 585 10C585 10 586.689 11.5103 586.734 11.8715C587.392 17.3532 592 31.5 600.91 26.1742C601.234 25.9805 601.403 25.9667 601.463 25.9667C601.664 25.9498 602.819 26.91 603 27C604 28 598.338 41.7455 596.508 44.3906C594.769 46.92 596.089 53.7338 596.089 53.7338C596.366 54.1261 596.566 54.2338 596.818 54.2338C596.818 54.2338 597.658 54.2338 597.602 54.2338H598.249C600.662 53.6963 601.5 53.3936 604 51.5C606.823 49.3616 609.116 47.0637 611.413 45.2285C612.5 44.5 611.143 44.8371 613.321 44.6686C615.5 44.5 616 45.5 616 46.5C616 47.5 616.5 48.5 618 49C619.5 49.5 626.666 46.6168 630.948 47.1674C631.214 47.2002 631.827 47.296 632 47.5C632.173 47.704 632.011 48.2328 632 48.5C631.5 51 630.5 52 629.585 53.7622C629.353 54.0015 629.182 54.2728 629.07 54.576C627.395 59.172 624.058 64.1151 628.58 69.154C628.704 69.2887 628.791 69.4531 628.833 69.6313C628.874 69.8095 628.87 69.9955 628.819 70.1713C626 73 623 75.5 623 75.5C623 75.5 619.847 77.6159 618.603 78.5255C612.179 83.2651 605.719 88.3399 598.996 92.6247C594.701 95.3656 594.151 101.242 592.787 105.539C592.727 105.727 592.611 105.892 592.454 106.01C592.298 106.128 592.109 106.193 591.914 106.197C585.622 106.317 580.948 105.974 577.894 105.168C570.274 103.157 564.639 103.492 562.833 112.182C562.498 113.797 561.445 114.743 561.313 116.419C560.915 121.693 563.5 127.5 564.5 131.774Z" fill="#B03B48"/>
</svg>
